<svg xmlns="http://www.w3.org/2000/svg" width="157.44" height="32" viewBox="0 0 157.44 32"><defs><style>.a{fill:#6d7570;}.b{fill:#f06364;}.c{fill:none;}.d{fill:#aeb5b2;}</style></defs><g transform="translate(-913 -112)"><g transform="translate(955.24 120.167)"><path class="a" d="M980.262,138.98A1.245,1.245,0,0,1,979,137.787a1.314,1.314,0,0,1,.358-.869,24.952,24.952,0,0,0,2.932-4.262.622.622,0,0,1,.563-.324.787.787,0,0,1,.8.733,17.461,17.461,0,0,1-2.148,5.148A1.459,1.459,0,0,1,980.262,138.98Zm7.876-8.25v7.3c0,1.722-.6,2.727-2.609,2.727a5.965,5.965,0,0,1-2.54-.579.8.8,0,0,1-.545-.733.7.7,0,0,1,.682-.716c.034,0,.085.017.119.017A7.192,7.192,0,0,0,984.8,139c.579,0,1.141-.136,1.141-1.142V130.73h-5.779a.724.724,0,0,1-.75-.75.7.7,0,0,1,.733-.733h5.8v-2.1a1.036,1.036,0,0,1,1.091-1.057,1.05,1.05,0,0,1,1.109,1.057v2.1h5.352a.719.719,0,0,1,.733.749.7.7,0,0,1-.767.716Zm3.853,7.091a23.972,23.972,0,0,0-2.029-4.586.7.7,0,0,1-.1-.341.64.64,0,0,1,.7-.579,1,1,0,0,1,.682.289c1.04,1.023,3.086,3.512,3.086,4.774a1.317,1.317,0,0,1-1.261,1.364A1.125,1.125,0,0,1,991.99,137.821Z" transform="translate(-979 -125.241)"/><path class="a" d="M1006.463,137.762a.788.788,0,0,1-.792-.836.774.774,0,0,1,.792-.818h10.909a.77.77,0,0,1,.791.8.8.8,0,0,1-.791.852Z" transform="translate(-988.602 -128.846)"/><path class="a" d="M1030,138.621a62.593,62.593,0,0,0,3.324-10.143,1.187,1.187,0,0,1,1.21-.92,1.331,1.331,0,0,1,1.415,1.176c0,.443-1.314,4.142-4.228,9.733,2.744-.272,5.131-.528,7.346-.852-.579-1.261-1.245-2.438-1.96-3.716a.824.824,0,0,1-.1-.358.685.685,0,0,1,.716-.648.7.7,0,0,1,.563.256c.477.545,4.449,5.1,4.449,6.9a1.312,1.312,0,0,1-1.279,1.38,1.484,1.484,0,0,1-1.347-1.159c-.154-.46-.307-.9-.477-1.329-4.262,1.074-10.586,2.063-10.774,2.063a1.259,1.259,0,0,1-1.346-1.194c0-.511.374-1.006,1.227-1.074Z" transform="translate(-996.463 -125.768)"/><path class="a" d="M1065.59,130.264c-.051,4.534-2.437,9.205-8.881,10.348a.778.778,0,0,1-.187.017.714.714,0,0,1-.751-.7.584.584,0,0,1,.529-.6c4.841-1.023,6.648-5.285,6.717-9.069h-4.125c-1.449,2.762-3.478,4.586-4.143,4.586a.582.582,0,0,1-.579-.614.839.839,0,0,1,.221-.546,15.615,15.615,0,0,0,3.188-7.04,1.125,1.125,0,0,1,1.193-.9,1.267,1.267,0,0,1,1.364,1.176,7.369,7.369,0,0,1-.562,1.91h9.529a.724.724,0,0,1,.767.733.675.675,0,0,1-.716.7Z" transform="translate(-1006.061 -125.116)"/><path class="a" d="M1081.94,128.888a.769.769,0,0,1-.818-.784.732.732,0,0,1,.818-.733h11.66c1.227,0,1.995.6,1.995,1.62a2.571,2.571,0,0,1-.137.835c-1.143,3.392-4.416,5.387-5.489,5.387a.748.748,0,0,1-.75-.7.655.655,0,0,1,.392-.6,6.96,6.96,0,0,0,3.17-4.586c0-.289-.187-.443-.494-.443Zm6.7,2.574c0,3.409-.563,7.569-6.222,9.75a1.422,1.422,0,0,1-.426.086.717.717,0,0,1-.75-.716.633.633,0,0,1,.393-.6c3.818-1.79,4.5-4.909,4.5-7.927,0-.341,0-.665-.018-.989v-.051a1.086,1.086,0,0,1,1.176-1.091,1.262,1.262,0,0,1,1.347,1.193Z" transform="translate(-1015.763 -125.701)"/><path class="b" d="M1124.63,132.145c-.2-.017-3.443-.1-4.176-.1h-1.466c-.018,5.251-3.392,7.774-7.842,8.9h-.052c-.273,0-.528-.528-.528-.784a.1.1,0,0,1,.051-.1c3.495-1.279,5.727-3.358,5.881-8.012h-2.523c-.256,0-3.921.086-4.108.1h-.051c-.1,0-.136-.051-.136-.119a.618.618,0,0,1,.034-.188.985.985,0,0,0,.035-.324,1.2,1.2,0,0,0-.035-.358,2.142,2.142,0,0,1-.069-.273c0-.068.018-.1.1-.1a.33.33,0,0,1,.119.017c.188.034,3.34.136,4.108.136h2.54c-.017-.938-.052-2.506-.052-3.512,0-.358,0-.648.017-.818,0-.068.034-.12.171-.12a.757.757,0,0,1,.188.017,1.812,1.812,0,0,0,.46.034,5.746,5.746,0,0,0,1.3-.153,1.028,1.028,0,0,1,.29-.052c.12,0,.17.068.17.256v.12c-.051.6-.068,2.8-.068,4.227h1.636c1.057,0,3.887-.119,4.023-.154h.051c.068,0,.086.035.086.1a1.737,1.737,0,0,1-.052.256,1.967,1.967,0,0,0-.034.358,1.508,1.508,0,0,0,.034.29,1.537,1.537,0,0,1,.052.239c0,.068-.018.119-.12.119Z" transform="translate(-1026.033 -125.327)"/><path class="b" d="M1148.972,139.132c0,.2-.069.221-.154.239a37.19,37.19,0,0,1-4.62.239c-3.87,0-6.853-.171-6.853-3.717,0-1.244.051-5.574.051-8.319v-.955c0-.17.034-.221.342-.221h.153a5.8,5.8,0,0,0,1.5-.2.483.483,0,0,1,.154-.017c.136,0,.153.085.153.324-.034,1.125-.085,3.238-.119,5.182a23.288,23.288,0,0,0,7.279-3.2.27.27,0,0,1,.171-.086c.085,0,.188.068.255.29a5.048,5.048,0,0,0,1.261,1.773c.1.12.188.222.188.307s-.069.153-.256.221a66.953,66.953,0,0,1-8.915,1.807c-.017,1.33-.051,2.438-.051,2.915,0,1.517.852,1.926,3.494,1.926a50.356,50.356,0,0,0,6.035-.529c.136,0,.153.051.153.12a.341.341,0,0,1-.017.119,9.232,9.232,0,0,0-.2,1.551ZM1148.92,128a3.022,3.022,0,0,0-1.023.665.34.34,0,0,1-.187.119c-.051,0-.085-.035-.1-.119a11.356,11.356,0,0,0-1.3-2.694.063.063,0,0,1-.017-.051c0-.17.358-.375.563-.375a10.7,10.7,0,0,1,2.3,2.25C1149.159,127.864,1149.091,127.932,1148.92,128Zm2.063-.9a2.942,2.942,0,0,0-.971.716.259.259,0,0,1-.187.119.124.124,0,0,1-.1-.1,10.283,10.283,0,0,0-1.432-2.625c-.017-.017-.017-.035-.017-.068,0-.154.341-.375.545-.375a9.516,9.516,0,0,1,2.386,2.131C1151.2,126.943,1151.154,127.011,1150.983,127.1Z" transform="translate(-1036.004 -124.761)"/></g><g transform="translate(913 112)"><rect class="c" width="32" height="32"/><g transform="translate(0 0.73)"><path class="b" d="M953.282,134.232a3.31,3.31,0,0,0-2.435,1.02.906.906,0,0,1-1.286,0,3.311,3.311,0,0,0-2.435-1.02c-2.263,0-3.677,2.489-2.546,4.922.936,2.013,4.235,4.607,5.345,5.441a.465.465,0,0,0,.558,0c1.109-.835,4.408-3.428,5.345-5.441C956.959,136.721,955.545,134.232,953.282,134.232Z" transform="translate(-924.226 -120.734)"/><path class="d" d="M923.769,141.812V130.334h-6.816l11.195-14.249v-2.944L913,132.2h8.9v11.478h17.079v-1.869Z" transform="translate(-913 -113.141)"/></g></g></g></svg>